<svg width="20" height="20" viewBox="0 0 20 20" fill="none" xmlns="http://www.w3.org/2000/svg">
	<g clip-path="url(#clip0_1217_149)">
		<path d="M0 4C0 1.79086 1.79086 0 4 0H16C18.2091 0 20 1.79086 20 4V16C20 18.2091 18.2091 20 16 20H4C1.79086 20 0 18.2091 0 16V4Z" fill="#66800B"/>
		<path d="M10.0007 10.0838C10.5568 8.92303 11.68 7.48149 12.6177 6.59509C13.1733 6.08414 13.9779 5.48275 14.7644 5.49798C15.5009 5.51225 15.5819 6.3304 15.5366 6.89343C15.4908 7.46165 15.4668 8.05555 15.4011 8.62418C15.3533 9.03756 15.333 9.62209 15.1992 10.0127C15.0866 10.352 14.8877 10.6561 14.6219 10.8951C14.107 11.358 13.3712 11.5137 12.6952 11.4947C12.581 11.4915 12.4698 11.4825 12.3558 11.4764C13.101 11.6798 13.9743 11.9172 14.2796 12.7225C14.4223 13.1309 14.2736 13.6278 14.0217 13.9641C13.3986 14.7959 12.1899 15.8007 11.1841 14.9261C10.7204 14.5229 10.4474 13.9656 10.2254 13.4041C10.1436 13.2004 10.0843 12.9888 9.99961 12.7897C9.94199 12.9226 9.88037 13.1211 9.82949 13.2613C9.73049 13.5388 9.61193 13.8087 9.47466 14.0693C8.99152 14.965 8.20587 15.64 7.1739 15.0441C6.39312 14.5932 5.26434 13.5076 5.80813 12.5312C6.1718 11.8782 6.97235 11.6628 7.63901 11.4763C7.43397 11.4861 7.3002 11.5003 7.08734 11.4948C6.52497 11.4804 5.93425 11.3324 5.48486 10.9828C5.1305 10.7047 4.87666 10.3185 4.76194 9.88293C4.72052 9.72344 4.70059 9.55734 4.68015 9.39394C4.61021 8.787 4.55336 8.17861 4.50962 7.56921C4.50085 7.45401 4.49339 7.33814 4.48427 7.22305C4.43529 6.60522 4.34388 5.59433 5.1892 5.5017C5.40975 5.48167 5.62429 5.52554 5.83277 5.59442C7.42274 6.11963 9.2693 8.62323 10.0007 10.0838Z" fill="#FFFCF0"/>
	</g>
	<defs>
		<clipPath id="clip0_1217_149">
			<rect width="20" height="20" fill="white"/>
		</clipPath>
	</defs>
</svg>
