<svg width="20" height="20" viewBox="0 0 20 20" fill="none" xmlns="http://www.w3.org/2000/svg">
	<g clip-path="url(#clip0_1216_157)">
		<path d="M0 4C0 1.79086 1.79086 0 4 0H16C18.2091 0 20 1.79086 20 4V16C20 18.2091 18.2091 20 16 20H4C1.79086 20 0 18.2091 0 16V4Z" fill="#66800B"/>
		<path d="M13.6874 2.48284C13.826 2.46097 13.9676 2.47134 14.1015 2.51317C14.3289 2.58661 14.4855 2.75845 14.5959 2.9829C15.0291 3.86327 13.81 4.36573 13.3066 4.85054C13.1847 4.96794 12.7964 5.20911 12.8964 5.41389C13.0574 5.74331 13.3599 6.08887 13.5168 6.42891C14.3007 8.12839 13.541 10.2214 11.8629 11.0417C10.8645 11.5284 9.83718 11.4537 8.81472 11.1304C8.53925 11.2317 8.36003 11.4223 8.20739 11.6843C8.06972 11.9206 7.71186 12.2525 7.6843 12.5309C7.67288 12.6463 7.98768 12.707 8.08706 12.7061C9.31825 12.6947 10.5685 12.5706 11.7915 12.7709C14.136 13.1598 14.2936 16.094 11.9587 16.5844C11.5551 16.6693 11.1973 16.6428 10.7913 16.6348C10.3946 16.6261 9.99774 16.6213 9.60089 16.6202C9.14782 16.6177 8.69475 16.6206 8.24177 16.629C7.82229 16.6369 7.20657 16.6781 6.8178 16.5887C6.64688 16.5174 6.441 16.429 6.34602 16.261C6.27516 16.1358 6.27643 15.9397 6.31745 15.805C6.40266 15.5251 6.6829 15.3807 6.95466 15.334C7.29866 15.2749 7.74475 15.3839 8.10007 15.4149C8.80431 15.4765 9.50186 15.4936 10.2082 15.4955C10.5343 15.4963 10.8698 15.5117 11.1936 15.4692C11.3648 15.4467 11.5367 15.4053 11.6888 15.3213C11.8677 15.2225 12.0209 15.0681 12.0778 14.8679C12.1319 14.6777 12.0991 14.4475 12.0001 14.2773C11.4251 13.2885 8.12712 14.0502 7.05948 13.7516C6.78727 13.6755 6.53323 13.5179 6.39501 13.2639C6.30661 13.1015 6.2812 12.918 6.29073 12.7353C6.31833 12.207 6.66173 11.7297 6.97622 11.3241C7.18509 11.0547 7.37071 10.8444 7.46991 10.5102C7.35663 10.0846 7.19948 10.0545 6.96475 9.71864C4.78727 6.60305 8.25641 2.92694 11.5736 4.51104C11.6985 4.57069 11.9199 4.65997 12.0636 4.64472C12.3501 4.49304 12.446 4.08016 12.6008 3.81321C12.7765 3.49171 12.9147 3.23384 13.0786 2.92528C13.2434 2.61509 13.3786 2.57184 13.6874 2.48284Z" fill="#FFFCF0"/>
		<path d="M10.3235 5.06588C10.3521 5.06303 10.3808 5.0607 10.4095 5.05889C11.4386 4.99531 12.3493 5.88104 12.3999 6.91401C12.465 8.2394 11.6279 9.95303 10.3187 10.4302C10.1679 10.4852 9.96533 10.4956 9.80605 10.5039C9.24131 10.5031 8.8472 10.3839 8.40097 10.0172C6.66455 8.59049 8.39937 5.30063 10.3235 5.06588Z" fill="#66800B"/>
	</g>
	<defs>
		<clipPath id="clip0_1216_157">
			<rect width="20" height="20" fill="white"/>
		</clipPath>
	</defs>
</svg>
