<svg width="20" height="20" viewBox="0 0 20 20" fill="none" xmlns="http://www.w3.org/2000/svg">
	<g clip-path="url(#clip0_1217_153)">
		<path d="M4.13807 0.200327C4.89012 0.122355 5.75596 0.151592 6.52135 0.151687L10.2396 0.152344L13.7041 0.152244C15.3261 0.152219 16.9545 0.0345693 18.2803 1.1611C18.7516 1.56165 19.2324 2.10087 19.4412 2.69068C19.9497 3.67833 19.8483 5.08822 19.8476 6.1857L19.8474 9.5965L19.8476 13.5546C19.8478 14.1762 19.8763 15.0498 19.8364 15.6445C19.8116 16.0686 19.7335 16.4879 19.6036 16.8924C19.4334 17.4242 18.9507 18.3053 18.4999 18.6343C18.4292 18.7318 18.2146 18.8976 18.1131 18.9695C17.5348 19.3839 16.8661 19.6544 16.1624 19.7587C15.545 19.856 14.864 19.8525 14.2411 19.8519L12.4977 19.8492L10.1946 19.8474C9.78875 19.8474 9.32564 19.8593 8.9257 19.8423C8.77584 19.8534 8.51164 19.8464 8.35227 19.8468L7.22518 19.8474C6.34076 19.8476 5.46854 19.8523 4.58438 19.8247C3.0382 19.7767 1.54113 19.0945 0.770943 17.6947C0.742574 17.6633 0.66991 17.5118 0.648399 17.4677C0.426215 17.0148 0.280209 16.5283 0.216256 16.0279C0.114263 15.2425 0.14547 14.0072 0.150739 13.174C0.157456 12.1116 0.125153 10.9638 0.154961 9.91255C0.141632 9.66378 0.151524 9.3145 0.151503 9.06062L0.151984 7.4524C0.15235 6.59814 0.121386 5.48581 0.164693 4.65095C0.216109 3.71974 0.343043 2.9814 0.843383 2.16745C0.94484 2.00206 1.05836 1.84439 1.18302 1.6957C1.93061 0.798694 2.98479 0.306522 4.13807 0.200327Z" fill="#FFFCF0"/>
		<path d="M6.52211 0.151857H14.9176C16.1219 0.171582 17.2867 0.315848 18.2809 1.16065C18.7523 1.56119 19.2332 2.10111 19.442 2.69092C19.9502 3.67855 19.8481 5.08872 19.8473 6.18604V13.5542C19.8475 14.1757 19.8764 15.0494 19.8366 15.644C19.8118 16.068 19.7339 16.4877 19.6041 16.8921C19.4445 17.3907 19.0098 18.1971 18.5846 18.5669L18.4996 18.6343C18.4289 18.7317 18.2144 18.8973 18.1129 18.9692C17.5347 19.3835 16.8663 19.654 16.1627 19.7583C15.5454 19.8556 14.8637 19.8526 14.2409 19.8521L12.4977 19.8491L10.195 19.8472C9.78908 19.8472 9.32537 19.8593 8.92543 19.8423C8.77551 19.8534 8.51144 19.8468 8.35219 19.8472H7.22523C6.34088 19.8474 5.46871 19.8522 4.58461 19.8247C3.03853 19.7767 1.54136 19.0945 0.771133 17.6948L0.70668 17.5864C0.682244 17.5391 0.658857 17.4893 0.648086 17.4673C0.426037 17.0145 0.280376 16.5281 0.216446 16.0278C0.114475 15.2425 0.145743 14.0075 0.151016 13.1743C0.157734 12.1119 0.125116 10.9638 0.154922 9.9126C0.141601 9.66396 0.152004 9.31489 0.151993 9.06104V7.45264C0.152359 6.59838 0.121381 5.48574 0.164688 4.65088C0.216101 3.71975 0.34316 2.98135 0.843399 2.16748C0.944825 2.00214 1.05863 1.84445 1.18324 1.6958C1.9308 0.798831 2.98509 0.306906 4.13832 0.200685C4.89037 0.122714 5.75672 0.151762 6.52211 0.151857ZM16.3248 19.6235H16.3258H16.3248ZM10.7565 2.72998L8.10805 2.73096C7.8483 2.73231 7.59713 2.75854 7.35414 2.76123C6.37008 2.77226 5.34819 2.91652 4.5143 3.47901C4.24164 3.66296 3.9962 3.90885 3.76137 4.146C3.74879 4.14185 3.73503 4.14147 3.72035 4.14307C3.73491 4.14152 3.74889 4.14189 3.76137 4.146C2.85813 5.22347 2.77514 6.36941 2.74281 7.70557C2.73223 8.14305 2.73129 8.57783 2.73012 9.01514C2.73562 10.4222 2.70498 11.828 2.78285 13.2329C2.79119 13.3832 2.82619 13.5424 2.83266 13.686C3.16971 16.0971 4.98832 17.2789 7.31606 17.2368C7.38643 17.2355 7.47507 17.2479 7.5475 17.2505C9.03199 17.3024 10.5389 17.2399 12.0221 17.269C12.2278 17.2665 12.4412 17.2392 12.6422 17.2378C14.4245 17.2249 15.7731 16.7643 16.7282 15.1489L16.8737 14.7964C16.9684 14.5609 17.0435 14.3176 17.0983 14.0698C17.2124 13.5544 17.2072 13.2214 17.234 12.7202C17.2776 11.8323 17.2789 10.9594 17.2682 10.0669C17.2518 8.69276 17.3378 7.26406 17.0914 5.90674C16.9682 5.22786 16.7141 4.835 16.3561 4.27588C16.2404 4.14824 16.1217 4.02341 15.9996 3.90186C15.5768 3.48309 15.0559 3.17633 14.485 3.0083C13.4282 2.69045 11.878 2.73054 10.7565 2.72998ZM3.23891 16.2505H3.23988H3.23891ZM0.193985 5.03565H0.194961H0.193985ZM2.47816 4.38916V4.39014V4.38916ZM16.7047 0.407716C16.7391 0.403788 16.7955 0.415237 16.8629 0.43506H16.8639C16.7965 0.415207 16.7403 0.404002 16.7057 0.407716H16.7047Z" fill="#66800B"/>
		<path d="M4.06155 7.95205C4.06122 7.85547 4.06153 7.75889 4.06249 7.66231C4.07012 6.66352 4.13005 5.5949 4.89133 4.85252C5.65604 4.10682 6.60688 4.10049 7.60366 4.06108C9.18325 3.9986 10.7833 4.00891 12.3624 4.06401C13.3645 4.09897 14.4044 4.10912 15.1482 4.89196C15.9207 5.68719 15.9462 6.86067 15.9358 7.90078C15.9865 8.52305 15.9714 9.12264 15.9761 9.74434C15.9823 10.5621 15.9776 11.3633 15.941 12.1784C15.8964 13.1702 15.9483 14.1703 15.2604 14.9818C14.7621 15.5696 14.0384 15.8192 13.2895 15.8897C12.7448 15.945 12.2275 15.9206 11.6949 15.9406C10.5476 15.9898 9.40901 15.9781 8.26182 15.938C7.58428 15.9143 6.95413 15.9514 6.27659 15.8234C4.92415 15.5679 4.18911 14.5933 4.1053 13.2437C4.02842 12.0059 4.01555 10.7565 4.02354 9.51469C4.02608 9.22022 4.00862 8.2291 4.06155 7.95205Z" fill="#66800B"/>
		<path d="M7.52009 7.20683C8.73114 6.13097 10.4977 5.95849 11.8939 6.77978C13.2881 7.59982 13.9959 9.22414 13.6474 10.8036C13.2989 12.3831 11.9732 13.5587 10.3634 13.7159C8.75356 13.873 7.22553 12.9761 6.57807 11.4938C5.93059 10.0116 6.31087 8.28107 7.52009 7.20683Z" fill="#FFFCF0"/>
		<path d="M9.8918 7.58108C11.2241 7.52141 12.3539 8.55032 12.4187 9.88243C12.4836 11.2145 11.459 12.3483 10.1272 12.4183C8.78803 12.4886 7.6467 11.4572 7.58153 10.1178C7.51637 8.77841 8.55215 7.64108 9.8918 7.58108Z" fill="#66800B"/>
		<path d="M13.824 5.24707C14.3023 5.21526 14.7169 5.57502 14.7527 6.05305C14.7885 6.53108 14.4322 6.9486 13.9545 6.9884C13.4711 7.02868 13.0475 6.66723 13.0113 6.18352C12.975 5.69979 13.34 5.27926 13.824 5.24707Z" fill="#FFFCF0"/>
	</g>
	<defs>
		<clipPath id="clip0_1217_153">
			<rect width="20" height="20" fill="white"/>
		</clipPath>
	</defs>
</svg>
