<svg width="20" height="20" viewBox="0 0 20 20" fill="none" xmlns="http://www.w3.org/2000/svg">
	<g clip-path="url(#clip0_1216_188)">
		<path d="M1.91945 0H18.0849C18.1493 0.043557 18.2613 0.0416281 18.3454 0.0648689C19.2416 0.312389 19.834 0.984394 20 1.91849V18.1442C19.815 18.864 19.534 19.315 18.8922 19.7172C18.6831 19.8482 18.27 19.9553 18.2003 20H1.76491C1.65331 19.9211 1.24538 19.8197 1.00611 19.6502C0.429703 19.2421 0.144434 18.7796 0 18.0978V1.91725C0.0168705 1.85197 0.0253836 1.78837 0.0407648 1.72539C0.234596 0.931799 0.856531 0.249312 1.66333 0.064866C1.74744 0.0456365 1.83996 0.0343697 1.91945 0Z" fill="#66800B"/>
		<path d="M13.3334 7.31171C13.4487 7.2962 13.6141 7.30263 13.7334 7.30033C15.3974 7.26833 16.7593 8.24122 17.0951 9.90349C17.2996 10.9158 17.2276 11.9792 17.2275 13.0134L17.2281 17.2282C16.2447 17.2174 15.2417 17.2275 14.2567 17.2273L14.2569 13.6988C14.2571 13.449 14.2595 13.1982 14.2579 12.9484C14.2525 12.0819 14.3556 10.9785 13.6407 10.3424C13.3233 10.06 12.867 9.98425 12.4573 10.0137C11.9355 10.0511 11.5821 10.2274 11.245 10.6211C10.9018 11.0761 10.8127 11.6459 10.8195 12.2005C10.8247 12.6284 10.8214 13.0592 10.8214 13.4874L10.8218 17.2282C9.87721 17.2178 8.9141 17.2272 7.96795 17.2268L7.96729 7.5782L10.8226 7.57783C10.8227 7.99556 10.8316 8.45245 10.8127 8.86697C10.847 8.81779 10.8818 8.769 10.9171 8.7206C11.5395 7.86986 12.3126 7.46884 13.3334 7.31171Z" fill="#FFFCF0"/>
		<path d="M3.0652 7.5787C4.05529 7.5672 5.06617 7.57388 6.05719 7.57766C6.04273 8.75346 6.05586 9.95694 6.0558 11.1346L6.05697 17.2282L3.06494 17.2265C3.07949 16.1583 3.06586 15.0552 3.06596 13.9847L3.0652 7.5787Z" fill="#FFFCF0"/>
		<path d="M4.32255 2.79628C5.29714 2.67578 6.18365 3.37144 6.29834 4.34673C6.413 5.32203 5.71209 6.20435 4.73613 6.31322C3.76836 6.42117 2.89505 5.7274 2.78132 4.76029C2.66761 3.7932 3.35617 2.91576 4.32255 2.79628Z" fill="#FFFCF0"/>
	</g>
	<defs>
		<clipPath id="clip0_1216_188">
			<rect width="20" height="20" fill="white"/>
		</clipPath>
	</defs>
</svg>
