<svg width="20" height="20" viewBox="0 0 20 20" fill="none" xmlns="http://www.w3.org/2000/svg">
	<g clip-path="url(#clip0_1217_184)">
		<path d="M0 4C0 1.79086 1.79086 0 4 0H16C18.2091 0 20 1.79086 20 4V16C20 18.2091 18.2091 20 16 20H4C1.79086 20 0 18.2091 0 16V4Z" fill="#66800B"/>
		<path d="M4.44629 4.298L7.75404 4.29843L10.6213 8.47432L14.2106 4.2987L15.1884 4.29761C15.0549 4.46715 14.8658 4.67501 14.7228 4.8413L13.817 5.89448L11.0572 9.10452C11.2021 9.33699 11.4133 9.62709 11.5713 9.85725L12.5635 11.302L15.5509 15.6513C15.4154 15.644 15.2501 15.6479 15.1123 15.648L12.2429 15.6486C12.1129 15.4523 11.976 15.2554 11.8412 15.0623C10.9581 13.797 10.1054 12.5054 9.21722 11.2444L5.42749 15.65C5.12801 15.6427 4.74583 15.6419 4.448 15.6515C4.82086 15.2271 5.1926 14.7863 5.5615 14.3572L8.78457 10.6114L4.44629 4.298Z" fill="#FFFCF0"/>
		<path d="M5.78223 5.03784L7.28472 5.03817C7.52533 5.36032 7.78501 5.75157 8.01786 6.0848L9.42939 8.10477L14.2084 14.9422C14.1663 14.9492 13.8206 14.9445 13.7572 14.9445L12.7038 14.9447L5.78223 5.03784Z" fill="#66800B"/>
	</g>
	<defs>
		<clipPath id="clip0_1217_184">
			<rect width="20" height="20" fill="white"/>
		</clipPath>
	</defs>
</svg>
